# xmcd
#
# Track frame offsets:
#	150
#	20554
#	33888
#	43965
#	54392
#	67121
#	83921
#	105424
#	120492
#	135487
#	155479
#	166156
#	186876
#	200262
#	209887
#	229105
#	240036
#	259125
#
# Disc length: 3648 seconds
#
# Revision: 1
# Processed by: cddbd v1.5.2PL0 Copyright (c) Steve Scherf et al.
# Submitted via: audiograbber 1.83.01
#
DISCID=f10e3e12
DTITLE=Various Artist - Greatest Ever Country Rock - 1
DYEAR=2013
DGENRE=Country
TTITLE0=Steve Earle - Copperhead Road
TTITLE1=Hank Williams Jnr - All My Rowdy Friends Are Coming Over Tonight
TTITLE2=Tom T Hall - Ain't Got The Time
TTITLE3=Ron Sexsmith - Cheap Hotel
TTITLE4=Loggins and Massina - Listen To A Country Song
TTITLE5=Joe Walsh - Birdcall Morning
TTITLE6=Waco Brothers - Fast Train Down
TTITLE7=Deadstring Brothers - Can't Make It Through The Night
TTITLE8=Poco - Pickin' Up the Pieces
TTITLE9=Hal Ketchum - Past the Point Of Rescue
TTITLE10=Sir Douglas Quintet - She's About A Mover
TTITLE11=Bobby Bare Jnr - I'll Be Around
TTITLE12=Jim Stafford - Spiders And Snakes
TTITLE13=Gore Gore Girls - Fox In A Box
TTITLE14=Scott H Biram - Sinkin' Down
TTITLE15=Youngbloods - Reason To Believe
TTITLE16=Marianne Faithful - Rich Kid Blues
TTITLE17=Bellamy Brothers - If I Said You Had A Beautiful Body Would You Hold I
TTITLE17=t Against Me
EXTD=
EXTT0=
EXTT1=
EXTT2=
EXTT3=
EXTT4=
EXTT5=
EXTT6=
EXTT7=
EXTT8=
EXTT9=
EXTT10=
EXTT11=
EXTT12=
EXTT13=
EXTT14=
EXTT15=
EXTT16=
EXTT17=
PLAYORDER=
